<svg id="Layer_1" height="512" viewBox="0 0 512 512" width="512" xmlns="http://www.w3.org/2000/svg" xmlns:xlink="http://www.w3.org/1999/xlink" data-name="Layer 1"><linearGradient id="linear-gradient" gradientUnits="userSpaceOnUse" x1="256" x2="256" y1="467" y2="45.1"><stop offset=".322" stop-color="#a163f5"/><stop offset=".466" stop-color="#b074ee"/><stop offset=".752" stop-color="#d8a1dd"/><stop offset=".898" stop-color="#efbad3"/></linearGradient><linearGradient id="linear-gradient-2" x1="116.498" x2="116.498" xlink:href="#linear-gradient" y1="467" y2="45.1"/><linearGradient id="linear-gradient-3" x1="395.502" x2="395.502" xlink:href="#linear-gradient" y1="467" y2="45.1"/><linearGradient id="linear-gradient-4" x1="256" x2="256" xlink:href="#linear-gradient" y1="467" y2="45.1"/><path d="m202.158 98.126 33.487 4.866 14.974 30.343a6 6 0 0 0 10.762 0l14.974-30.343 33.487-4.866a6 6 0 0 0 3.326-10.234l-24.231-23.62 5.72-33.35a6 6 0 0 0 -8.706-6.325l-29.951 15.746-29.951-15.743a6 6 0 0 0 -8.706 6.325l5.72 33.35-24.231 23.62a6 6 0 0 0 3.326 10.234zm31.542-27.462a6 6 0 0 0 1.726-5.311l-4.2-24.478 21.982 11.557a5.994 5.994 0 0 0 5.584 0l21.982-11.557-4.2 24.478a6 6 0 0 0 1.726 5.311l17.786 17.336-24.577 3.57a6 6 0 0 0 -4.519 3.283l-10.99 22.269-10.99-22.269a6 6 0 0 0 -4.519-3.283l-24.577-3.57z" fill="url(#linear-gradient)"/><path d="m175.184 167.177a6 6 0 0 0 -1.518-6.152l-24.231-23.619 5.72-33.35a6 6 0 0 0 -8.706-6.326l-29.949 15.748-29.953-15.748a6 6 0 0 0 -8.706 6.326l5.721 33.35-24.232 23.619a6 6 0 0 0 3.326 10.235l33.487 4.866 14.974 30.344a6 6 0 0 0 10.762 0l14.975-30.344 33.486-4.866a6 6 0 0 0 4.844-4.083zm-43.177-2.477a6 6 0 0 0 -4.519 3.282l-10.988 22.275-10.99-22.271a6 6 0 0 0 -4.519-3.282l-24.577-3.571 17.786-17.333a6.005 6.005 0 0 0 1.726-5.312l-4.2-24.476 21.982 11.556a5.994 5.994 0 0 0 5.584 0l21.982-11.556-4.2 24.476a6.005 6.005 0 0 0 1.726 5.312l17.785 17.335z" fill="url(#linear-gradient-2)"/><path d="m428.438 137.406 5.721-33.35a6 6 0 0 0 -8.706-6.326l-29.953 15.748-29.949-15.748a6 6 0 0 0 -8.706 6.326l5.72 33.35-24.231 23.619a6 6 0 0 0 3.326 10.235l33.486 4.866 14.975 30.344a6 6 0 0 0 10.762 0l14.974-30.344 33.487-4.866a6 6 0 0 0 3.326-10.235zm-17.427 27.3a6 6 0 0 0 -4.519 3.282l-10.992 22.269-10.99-22.271a6 6 0 0 0 -4.519-3.282l-24.577-3.571 17.786-17.333a6.005 6.005 0 0 0 1.726-5.312l-4.2-24.476 21.982 11.556a5.994 5.994 0 0 0 5.584 0l21.982-11.556-4.2 24.476a6.005 6.005 0 0 0 1.726 5.312l17.785 17.335z" fill="url(#linear-gradient-3)"/><path d="m323.616 218.669a98.206 98.206 0 0 0 -73.795-26.776c-49.908 3.279-90.423 44.769-92.235 94.437a98.751 98.751 0 0 0 30.966 75.812 55.118 55.118 0 0 1 16.333 47.61l-.98 7.522a7.346 7.346 0 0 0 1.262 5.9 7.912 7.912 0 0 0 3.749 2.826v37.3a24.819 24.819 0 0 0 24.791 24.791h44.6a24.819 24.819 0 0 0 24.793-24.791v-37.62a8.337 8.337 0 0 0 4.825-7.77c0-.056 0-.11-.006-.166l-.686-13.013v-.03c-.945-16.362 4.99-31.871 16.271-42.542 1.384-1.3 2.742-2.657 4.036-4.024a98.674 98.674 0 0 0 -3.92-139.468zm-102.7 207.789h70.184v17.642h-70.18zm57.389 49.635h-44.6a12.806 12.806 0 0 1 -12.789-12.793v-7.2h70.184v7.2a12.807 12.807 0 0 1 -12.795 12.793zm58.707-155.355a86 86 0 0 1 -18.191 29.15c-1.136 1.2-2.33 2.39-3.557 3.546-13.865 13.114-21.16 32.045-20.017 51.943l.478 9.081h-79.352l.4-3.1a67.127 67.127 0 0 0 -19.973-57.933 86.757 86.757 0 0 1 -27.222-66.638c1.592-43.617 37.185-80.04 80.982-82.917a86.691 86.691 0 0 1 86.453 116.868z" fill="url(#linear-gradient-4)"/><path d="m290.884 290.375h-21l-.553-56.919a6 6 0 0 0 -11.5-2.33l-42.22 97.259a6 6 0 0 0 5.5 8.389h20.995l.548 56.922a6 6 0 0 0 4.809 5.824 6.075 6.075 0 0 0 1.194.12 6 6 0 0 0 5.5-3.612l42.225-97.263a6 6 0 0 0 -5.5-8.39zm-36.5 75-.334-34.66a6 6 0 0 0 -6-5.943h-17.788l27.348-63 .336 34.661a6 6 0 0 0 6 5.941h17.792z" fill="url(#linear-gradient)"/></svg>