<svg id="Layer_1" height="512" viewBox="0 0 512 512" width="512" xmlns="http://www.w3.org/2000/svg" data-name="Layer 1"><path d="m448.48 165.32-36.61 5.32-16.37 33.17-16.37-33.17-36.61-5.32 26.49-25.82-6.25-36.46 32.74 17.22 32.74-17.22-6.25 36.46z" fill="#6fe3ff"/><path d="m297.1 420.46h-85.58a1.716 1.716 0 0 1 -1.71-2.06l1.03-7.87a61.375 61.375 0 0 0 -18.15-52.74 92.691 92.691 0 0 1 -29.11-71.22c1.71-46.92 39.72-85.61 86.63-88.69a92.646 92.646 0 0 1 72.97 156.13c-1.22 1.29-2.49 2.56-3.79 3.78-12.67 11.99-19.18 29.45-18.15 47.26l.68 13.01a2.344 2.344 0 0 1 -2.28 2.4z" fill="#f8ec7d"/><path d="m308.98 92.19-36.61 5.32-16.37 33.17-16.37-33.17-36.61-5.32 26.49-25.82-6.25-36.46 32.74 17.21 32.74-17.21-6.25 36.46z" fill="#6fe3ff"/><path d="m297.1 450.1v13.2a18.8 18.8 0 0 1 -18.8 18.79h-44.59a18.787 18.787 0 0 1 -18.79-18.79v-13.2z" fill="#cc7350"/><path d="m214.92 420.46h82.18v29.64h-82.18z" fill="#e48e66"/><g fill="#6fe3ff"><path d="m169.48 165.32-36.61 5.32-16.37 33.17-16.37-33.17-36.61-5.32 26.49-25.82-6.25-36.46 32.74 17.22 32.74-17.22-6.25 36.46z"/><path d="m290.88 296.37-42.22 97.27-.61-62.87h-26.93l42.22-97.26.61 62.86z"/></g></svg>